STARTFONT 2.1
FONT -SGI-Screen-Bold-R-Normal--18-180-72-72-M-100-ISO8859-1
SIZE 18 72 72
FONTBOUNDINGBOX 10 18 0 -5

STARTPROPERTIES 25
_DEC_DEVICE_FONTNAMES "FM=Screen-Bold"
FONTNAME_REGISTRY ""
FAMILY_NAME "Screen"
FOUNDRY "SGI"
WEIGHT_NAME "Bold"
SLANT "R"
SETWIDTH_NAME "Normal"
ADD_STYLE_NAME ""
PIXEL_SIZE 18
POINT_SIZE 180
RESOLUTION_X 72
RESOLUTION_Y 72
SPACING "M"
AVERAGE_WIDTH 100
CHARSET_REGISTRY "ISO8859"
CHARSET_ENCODING "1"
CHARSET_COLLECTIONS "ASCII ISO8859-1"
FULL_NAME "Screen Bold"
CAP_HEIGHT 12
X_HEIGHT 9
WEIGHT 10
QUAD_WIDTH 10
DEFAULT_CHAR 0
FONT_DESCENT 5
FONT_ASCENT 13
ENDPROPERTIES

CHARS 190

STARTCHAR space
ENCODING 32
SWIDTH 556 0
DWIDTH 10 0
BBX 10 18 0 -5
BITMAP
0000
0000
0000
0000
0000
0000
0000
0000
0000
0000
0000
0000
0000
0000
0000
0000
0000
0000
ENDCHAR

STARTCHAR exclam
ENCODING 33
SWIDTH 556 0
DWIDTH 10 0
BBX 10 18 0 -5
BITMAP
0000
0C00
0C00
0C00
0C00
0C00
0C00
0C00
0C00
0000
0000
0C00
0C00
0000
0000
0000
0000
0000
ENDCHAR

STARTCHAR quotedbl
ENCODING 34
SWIDTH 556 0
DWIDTH 10 0
BBX 10 18 0 -5
BITMAP
0000
3300
3300
3300
3300
0000
0000
0000
0000
0000
0000
0000
0000
0000
0000
0000
0000
0000
ENDCHAR

STARTCHAR numbersign
ENCODING 35
SWIDTH 556 0
DWIDTH 10 0
BBX 10 18 0 -5
BITMAP
0000
0000
1980
1980
1980
7FC0
3300
3300
3300
FF80
6600
6600
6600
0000
0000
0000
0000
0000
ENDCHAR

STARTCHAR dollar
ENCODING 36
SWIDTH 556 0
DWIDTH 10 0
BBX 10 18 0 -5
BITMAP
0800
0800
3E00
6B00
6B00
6800
3800
0E00
0B00
0B00
6B00
6B00
3E00
0800
0800
0000
0000
0000
ENDCHAR

STARTCHAR percent
ENCODING 37
SWIDTH 556 0
DWIDTH 10 0
BBX 10 18 0 -5
BITMAP
0000
3980
4980
4B00
4B00
7600
0C00
0C00
1B80
3480
3480
6480
6700
0000
0000
0000
0000
0000
ENDCHAR

STARTCHAR ampersand
ENCODING 38
SWIDTH 556 0
DWIDTH 10 0
BBX 10 18 0 -5
BITMAP
0000
3800
6C00
6C00
6C00
3800
3800
6C00
C780
C300
C300
6780
3E80
0000
0000
0000
0000
0000
ENDCHAR

STARTCHAR quoteright
ENCODING 39
SWIDTH 556 0
DWIDTH 10 0
BBX 10 18 0 -5
BITMAP
0000
0600
0600
0C00
1800
0000
0000
0000
0000
0000
0000
0000
0000
0000
0000
0000
0000
0000
ENDCHAR

STARTCHAR parenleft
ENCODING 40
SWIDTH 556 0
DWIDTH 10 0
BBX 10 18 0 -5
BITMAP
0300
0600
0C00
1800
1800
3000
3000
3000
3000
3000
3000
3000
1800
1800
0C00
0600
0300
0000
ENDCHAR

STARTCHAR parenright
ENCODING 41
SWIDTH 556 0
DWIDTH 10 0
BBX 10 18 0 -5
BITMAP
3000
1800
0C00
0600
0600
0300
0300
0300
0300
0300
0300
0300
0600
0600
0C00
1800
3000
0000
ENDCHAR

STARTCHAR asterisk
ENCODING 42
SWIDTH 556 0
DWIDTH 10 0
BBX 10 18 0 -5
BITMAP
0000
0000
0C00
0C00
6980
7F80
1E00
1E00
7F80
6580
0C00
0C00
0000
0000
0000
0000
0000
0000
ENDCHAR

STARTCHAR plus
ENCODING 43
SWIDTH 556 0
DWIDTH 10 0
BBX 10 18 0 -5
BITMAP
0000
0000
0000
0000
0C00
0C00
0C00
7F80
7F80
0C00
0C00
0C00
0000
0000
0000
0000
0000
0000
ENDCHAR

STARTCHAR comma
ENCODING 44
SWIDTH 556 0
DWIDTH 10 0
BBX 10 18 0 -5
BITMAP
0000
0000
0000
0000
0000
0000
0000
0000
0000
0000
0000
0C00
0C00
0400
1800
0000
0000
0000
ENDCHAR

STARTCHAR minus
ENCODING 45
SWIDTH 556 0
DWIDTH 10 0
BBX 10 18 0 -5
BITMAP
0000
0000
0000
0000
0000
0000
0000
7F80
7F80
0000
0000
0000
0000
0000
0000
0000
0000
0000
ENDCHAR

STARTCHAR period
ENCODING 46
SWIDTH 556 0
DWIDTH 10 0
BBX 10 18 0 -5
BITMAP
0000
0000
0000
0000
0000
0000
0000
0000
0000
0000
0000
1800
1800
0000
0000
0000
0000
0000
ENDCHAR

STARTCHAR slash
ENCODING 47
SWIDTH 556 0
DWIDTH 10 0
BBX 10 18 0 -5
BITMAP
0180
0180
0300
0300
0600
0600
0C00
0C00
1800
1800
3000
3000
6000
6000
0000
0000
0000
0000
ENDCHAR

STARTCHAR zero
ENCODING 48
SWIDTH 556 0
DWIDTH 10 0
BBX 10 18 0 -5
BITMAP
0000
1E00
3300
6180
6380
6780
6D80
7980
7180
6180
6180
3300
1E00
0000
0000
0000
0000
0000
ENDCHAR

STARTCHAR one
ENCODING 49
SWIDTH 556 0
DWIDTH 10 0
BBX 10 18 0 -5
BITMAP
0000
0C00
3C00
0C00
0C00
0C00
0C00
0C00
0C00
0C00
0C00
0C00
3F00
0000
0000
0000
0000
0000
ENDCHAR

STARTCHAR two
ENCODING 50
SWIDTH 556 0
DWIDTH 10 0
BBX 10 18 0 -5
BITMAP
0000
1E00
3300
6180
6180
0180
0300
0600
0C00
1800
3000
6000
7F80
0000
0000
0000
0000
0000
ENDCHAR

STARTCHAR three
ENCODING 51
SWIDTH 556 0
DWIDTH 10 0
BBX 10 18 0 -5
BITMAP
0000
1E00
3300
6180
0180
0300
0E00
0300
0180
0180
6180
3300
1E00
0000
0000
0000
0000
0000
ENDCHAR

STARTCHAR four
ENCODING 52
SWIDTH 556 0
DWIDTH 10 0
BBX 10 18 0 -5
BITMAP
0000
0300
0700
0F00
1B00
1B00
3300
3300
6300
7F80
0300
0300
0300
0000
0000
0000
0000
0000
ENDCHAR

STARTCHAR five
ENCODING 53
SWIDTH 556 0
DWIDTH 10 0
BBX 10 18 0 -5
BITMAP
0000
7F80
6000
6000
6000
7E00
0300
0180
0180
0180
6180
3300
1E00
0000
0000
0000
0000
0000
ENDCHAR

STARTCHAR six
ENCODING 54
SWIDTH 556 0
DWIDTH 10 0
BBX 10 18 0 -5
BITMAP
0000
1F00
3180
6000
6000
6E00
7100
6180
6180
6180
6180
3300
1E00
0000
0000
0000
0000
0000
ENDCHAR

STARTCHAR seven
ENCODING 55
SWIDTH 556 0
DWIDTH 10 0
BBX 10 18 0 -5
BITMAP
0000
7F80
0180
0180
0300
0300
0600
0600
0C00
0C00
1800
1800
1800
0000
0000
0000
0000
0000
ENDCHAR

STARTCHAR eight
ENCODING 56
SWIDTH 556 0
DWIDTH 10 0
BBX 10 18 0 -5
BITMAP
0000
1E00
3300
6180
6180
3300
1E00
3300
6180
6180
6180
3300
1E00
0000
0000
0000
0000
0000
ENDCHAR

STARTCHAR nine
ENCODING 57
SWIDTH 556 0
DWIDTH 10 0
BBX 10 18 0 -5
BITMAP
0000
1E00
3300
6180
6180
6180
3380
1D80
0180
0180
0180
6300
3E00
0000
0000
0000
0000
0000
ENDCHAR

STARTCHAR colon
ENCODING 58
SWIDTH 556 0
DWIDTH 10 0
BBX 10 18 0 -5
BITMAP
0000
0000
0000
0000
0000
0C00
0C00
0000
0000
0000
0000
0C00
0C00
0000
0000
0000
0000
0000
ENDCHAR

STARTCHAR semicolon
ENCODING 59
SWIDTH 556 0
DWIDTH 10 0
BBX 10 18 0 -5
BITMAP
0000
0000
0000
0000
0000
0C00
0C00
0000
0000
0000
0000
0C00
0C00
0400
1800
0000
0000
0000
ENDCHAR

STARTCHAR less
ENCODING 60
SWIDTH 556 0
DWIDTH 10 0
BBX 10 18 0 -5
BITMAP
0000
0100
0300
0600
0C00
1800
3000
6000
3000
1800
0C00
0600
0300
0100
0000
0000
0000
0000
ENDCHAR

STARTCHAR equal
ENCODING 61
SWIDTH 556 0
DWIDTH 10 0
BBX 10 18 0 -5
BITMAP
0000
0000
0000
0000
0000
7F80
7F80
0000
0000
7F80
7F80
0000
0000
0000
0000
0000
0000
0000
ENDCHAR

STARTCHAR greater
ENCODING 62
SWIDTH 556 0
DWIDTH 10 0
BBX 10 18 0 -5
BITMAP
0000
2000
3000
1800
0C00
0600
0300
0180
0300
0600
0C00
1800
3000
2000
0000
0000
0000
0000
ENDCHAR

STARTCHAR question
ENCODING 63
SWIDTH 556 0
DWIDTH 10 0
BBX 10 18 0 -5
BITMAP
0000
1E00
3300
6180
6180
0180
0300
0600
0C00
0C00
0000
0C00
0C00
0000
0000
0000
0000
0000
ENDCHAR

STARTCHAR at
ENCODING 64
SWIDTH 556 0
DWIDTH 10 0
BBX 10 18 0 -5
BITMAP
0000
0000
3E00
6300
C180
CF80
D980
D980
D980
D980
CF80
C000
6180
3F00
0000
0000
0000
0000
ENDCHAR

STARTCHAR A
ENCODING 65
SWIDTH 556 0
DWIDTH 10 0
BBX 10 18 0 -5
BITMAP
0000
0800
1C00
1C00
3600
3600
3600
6300
6300
7F00
C180
C180
C180
0000
0000
0000
0000
0000
ENDCHAR

STARTCHAR B
ENCODING 66
SWIDTH 556 0
DWIDTH 10 0
BBX 10 18 0 -5
BITMAP
0000
7E00
6300
6180
6180
6300
7E00
6300
6180
6180
6180
6300
7E00
0000
0000
0000
0000
0000
ENDCHAR

STARTCHAR C
ENCODING 67
SWIDTH 556 0
DWIDTH 10 0
BBX 10 18 0 -5
BITMAP
0000
1E00
3300
6180
6000
6000
6000
6000
6000
6000
6180
3300
1E00
0000
0000
0000
0000
0000
ENDCHAR

STARTCHAR D
ENCODING 68
SWIDTH 556 0
DWIDTH 10 0
BBX 10 18 0 -5
BITMAP
0000
7E00
6300
6180
6180
6180
6180
6180
6180
6180
6180
6300
7E00
0000
0000
0000
0000
0000
ENDCHAR

STARTCHAR E
ENCODING 69
SWIDTH 556 0
DWIDTH 10 0
BBX 10 18 0 -5
BITMAP
0000
7F80
6000
6000
6000
6000
7F00
6000
6000
6000
6000
6000
7F80
0000
0000
0000
0000
0000
ENDCHAR

STARTCHAR F
ENCODING 70
SWIDTH 556 0
DWIDTH 10 0
BBX 10 18 0 -5
BITMAP
0000
7F80
6000
6000
6000
6000
7F00
6000
6000
6000
6000
6000
6000
0000
0000
0000
0000
0000
ENDCHAR

STARTCHAR G
ENCODING 71
SWIDTH 556 0
DWIDTH 10 0
BBX 10 18 0 -5
BITMAP
0000
1E00
3300
6180
6000
6000
6000
6780
6180
6180
6180
3380
1E80
0000
0000
0000
0000
0000
ENDCHAR

STARTCHAR H
ENCODING 72
SWIDTH 556 0
DWIDTH 10 0
BBX 10 18 0 -5
BITMAP
0000
6180
6180
6180
6180
6180
7F80
6180
6180
6180
6180
6180
6180
0000
0000
0000
0000
0000
ENDCHAR

STARTCHAR I
ENCODING 73
SWIDTH 556 0
DWIDTH 10 0
BBX 10 18 0 -5
BITMAP
0000
1E00
0C00
0C00
0C00
0C00
0C00
0C00
0C00
0C00
0C00
0C00
1E00
0000
0000
0000
0000
0000
ENDCHAR

STARTCHAR J
ENCODING 74
SWIDTH 556 0
DWIDTH 10 0
BBX 10 18 0 -5
BITMAP
0000
0180
0180
0180
0180
0180
0180
0180
6180
6180
6180
3300
1E00
0000
0000
0000
0000
0000
ENDCHAR

STARTCHAR K
ENCODING 75
SWIDTH 556 0
DWIDTH 10 0
BBX 10 18 0 -5
BITMAP
0000
6080
6180
6300
6600
6C00
7800
7C00
6600
6300
6300
6180
6180
0000
0000
0000
0000
0000
ENDCHAR

STARTCHAR L
ENCODING 76
SWIDTH 556 0
DWIDTH 10 0
BBX 10 18 0 -5
BITMAP
0000
6000
6000
6000
6000
6000
6000
6000
6000
6000
6000
6000
7F80
0000
0000
0000
0000
0000
ENDCHAR

STARTCHAR M
ENCODING 77
SWIDTH 556 0
DWIDTH 10 0
BBX 10 18 0 -5
BITMAP
0000
6180
6180
7380
7380
7F80
6D80
6D80
6180
6180
6180
6180
6180
0000
0000
0000
0000
0000
ENDCHAR

STARTCHAR N
ENCODING 78
SWIDTH 556 0
DWIDTH 10 0
BBX 10 18 0 -5
BITMAP
0000
6180
6180
7180
7180
7980
6980
6D80
6580
6780
6380
6380
6180
0000
0000
0000
0000
0000
ENDCHAR

STARTCHAR O
ENCODING 79
SWIDTH 556 0
DWIDTH 10 0
BBX 10 18 0 -5
BITMAP
0000
1E00
3300
6180
6180
6180
6180
6180
6180
6180
6180
3300
1E00
0000
0000
0000
0000
0000
ENDCHAR

STARTCHAR P
ENCODING 80
SWIDTH 556 0
DWIDTH 10 0
BBX 10 18 0 -5
BITMAP
0000
7E00
6300
6180
6180
6180
6300
7E00
6000
6000
6000
6000
6000
0000
0000
0000
0000
0000
ENDCHAR

STARTCHAR Q
ENCODING 81
SWIDTH 556 0
DWIDTH 10 0
BBX 10 18 0 -5
BITMAP
0000
1E00
3300
6180
6180
6180
6180
6180
6180
6180
6980
3B00
1E00
0400
0600
0380
0000
0000
ENDCHAR

STARTCHAR R
ENCODING 82
SWIDTH 556 0
DWIDTH 10 0
BBX 10 18 0 -5
BITMAP
0000
7E00
6300
6180
6180
6180
6300
7E00
6600
6300
6300
6180
6180
0000
0000
0000
0000
0000
ENDCHAR

STARTCHAR S
ENCODING 83
SWIDTH 556 0
DWIDTH 10 0
BBX 10 18 0 -5
BITMAP
0000
1E00
3300
6180
6000
7000
3E00
1F00
0380
6180
6180
3300
1E00
0000
0000
0000
0000
0000
ENDCHAR

STARTCHAR T
ENCODING 84
SWIDTH 556 0
DWIDTH 10 0
BBX 10 18 0 -5
BITMAP
0000
7F80
0C00
0C00
0C00
0C00
0C00
0C00
0C00
0C00
0C00
0C00
0C00
0000
0000
0000
0000
0000
ENDCHAR

STARTCHAR U
ENCODING 85
SWIDTH 556 0
DWIDTH 10 0
BBX 10 18 0 -5
BITMAP
0000
6180
6180
6180
6180
6180
6180
6180
6180
6180
6180
3300
1E00
0000
0000
0000
0000
0000
ENDCHAR

STARTCHAR V
ENCODING 86
SWIDTH 556 0
DWIDTH 10 0
BBX 10 18 0 -5
BITMAP
0000
6180
6180
6180
6180
6180
3300
3300
3300
1E00
1E00
0C00
0C00
0000
0000
0000
0000
0000
ENDCHAR

STARTCHAR W
ENCODING 87
SWIDTH 556 0
DWIDTH 10 0
BBX 10 18 0 -5
BITMAP
0000
C180
C980
C980
C980
DD80
DD80
7F00
7F00
3600
3600
2200
2200
0000
0000
0000
0000
0000
ENDCHAR

STARTCHAR X
ENCODING 88
SWIDTH 556 0
DWIDTH 10 0
BBX 10 18 0 -5
BITMAP
0000
6180
6180
3300
3300
1E00
0C00
1E00
3300
3300
6180
6180
6180
0000
0000
0000
0000
0000
ENDCHAR

STARTCHAR Y
ENCODING 89
SWIDTH 556 0
DWIDTH 10 0
BBX 10 18 0 -5
BITMAP
0000
6180
6180
6180
3300
3300
1E00
1E00
0C00
0C00
0C00
0C00
0C00
0000
0000
0000
0000
0000
ENDCHAR

STARTCHAR Z
ENCODING 90
SWIDTH 556 0
DWIDTH 10 0
BBX 10 18 0 -5
BITMAP
0000
7F80
0180
0300
0300
0600
0C00
0C00
1800
3000
3000
6000
7F80
0000
0000
0000
0000
0000
ENDCHAR

STARTCHAR bracketleft
ENCODING 91
SWIDTH 556 0
DWIDTH 10 0
BBX 10 18 0 -5
BITMAP
1F00
1800
1800
1800
1800
1800
1800
1800
1800
1800
1800
1800
1800
1800
1800
1F00
0000
0000
ENDCHAR

STARTCHAR backslash
ENCODING 92
SWIDTH 556 0
DWIDTH 10 0
BBX 10 18 0 -5
BITMAP
6000
6000
3000
3000
1800
1800
0C00
0C00
0600
0600
0300
0300
0180
0180
0000
0000
0000
0000
ENDCHAR

STARTCHAR bracketright
ENCODING 93
SWIDTH 556 0
DWIDTH 10 0
BBX 10 18 0 -5
BITMAP
1F00
0300
0300
0300
0300
0300
0300
0300
0300
0300
0300
0300
0300
0300
0300
1F00
0000
0000
ENDCHAR

STARTCHAR asciicircum
ENCODING 94
SWIDTH 556 0
DWIDTH 10 0
BBX 10 18 0 -5
BITMAP
0000
0800
1C00
3600
6300
0000
0000
0000
0000
0000
0000
0000
0000
0000
0000
0000
0000
0000
ENDCHAR

STARTCHAR underscore
ENCODING 95
SWIDTH 556 0
DWIDTH 10 0
BBX 10 18 0 -5
BITMAP
0000
0000
0000
0000
0000
0000
0000
0000
0000
0000
0000
0000
0000
0000
FFC0
FFC0
0000
0000
ENDCHAR

STARTCHAR quoteleft
ENCODING 96
SWIDTH 556 0
DWIDTH 10 0
BBX 10 18 0 -5
BITMAP
0000
3000
3000
1800
0C00
0000
0000
0000
0000
0000
0000
0000
0000
0000
0000
0000
0000
0000
ENDCHAR

STARTCHAR a
ENCODING 97
SWIDTH 556 0
DWIDTH 10 0
BBX 10 18 0 -5
BITMAP
0000
0000
0000
0000
3E00
6700
0300
1F00
3300
6300
6300
6700
3D80
0000
0000
0000
0000
0000
ENDCHAR

STARTCHAR b
ENCODING 98
SWIDTH 556 0
DWIDTH 10 0
BBX 10 18 0 -5
BITMAP
0000
6000
6000
6000
6E00
7300
6180
6180
6180
6180
6180
7300
6E00
0000
0000
0000
0000
0000
ENDCHAR

STARTCHAR c
ENCODING 99
SWIDTH 556 0
DWIDTH 10 0
BBX 10 18 0 -5
BITMAP
0000
0000
0000
0000
1E00
3300
6180
6000
6000
6000
6180
3300
1E00
0000
0000
0000
0000
0000
ENDCHAR

STARTCHAR d
ENCODING 100
SWIDTH 556 0
DWIDTH 10 0
BBX 10 18 0 -5
BITMAP
0000
0180
0180
0180
1D80
3380
6180
6180
6180
6180
6180
3380
1D80
0000
0000
0000
0000
0000
ENDCHAR

STARTCHAR e
ENCODING 101
SWIDTH 556 0
DWIDTH 10 0
BBX 10 18 0 -5
BITMAP
0000
0000
0000
0000
1E00
3300
6180
6180
7F80
6000
6000
3180
1F00
0000
0000
0000
0000
0000
ENDCHAR

STARTCHAR f
ENCODING 102
SWIDTH 556 0
DWIDTH 10 0
BBX 10 18 0 -5
BITMAP
0000
0F00
1800
1800
7F00
1800
1800
1800
1800
1800
1800
1800
1800
0000
0000
0000
0000
0000
ENDCHAR

STARTCHAR g
ENCODING 103
SWIDTH 556 0
DWIDTH 10 0
BBX 10 18 0 -5
BITMAP
0000
0000
0000
0000
1D80
3380
6180
6180
6180
6180
6180
3380
1D80
0180
0180
6300
3E00
0000
ENDCHAR

STARTCHAR h
ENCODING 104
SWIDTH 556 0
DWIDTH 10 0
BBX 10 18 0 -5
BITMAP
0000
6000
6000
6000
6E00
7300
6180
6180
6180
6180
6180
6180
6180
0000
0000
0000
0000
0000
ENDCHAR

STARTCHAR i
ENCODING 105
SWIDTH 556 0
DWIDTH 10 0
BBX 10 18 0 -5
BITMAP
0000
0600
0600
0000
1E00
0600
0600
0600
0600
0600
0600
0600
0600
0000
0000
0000
0000
0000
ENDCHAR

STARTCHAR j
ENCODING 106
SWIDTH 556 0
DWIDTH 10 0
BBX 10 18 0 -5
BITMAP
0000
0300
0300
0000
0F00
0300
0300
0300
0300
0300
0300
0300
0300
6300
6300
3600
1C00
0000
ENDCHAR

STARTCHAR k
ENCODING 107
SWIDTH 556 0
DWIDTH 10 0
BBX 10 18 0 -5
BITMAP
0000
6000
6000
6000
6180
6300
6600
7C00
7800
6C00
6600
6300
6180
0000
0000
0000
0000
0000
ENDCHAR

STARTCHAR l
ENCODING 108
SWIDTH 556 0
DWIDTH 10 0
BBX 10 18 0 -5
BITMAP
0000
1E00
0600
0600
0600
0600
0600
0600
0600
0600
0600
0600
0600
0000
0000
0000
0000
0000
ENDCHAR

STARTCHAR m
ENCODING 109
SWIDTH 556 0
DWIDTH 10 0
BBX 10 18 0 -5
BITMAP
0000
0000
0000
0000
5B00
7F80
6D80
6D80
6D80
6D80
6D80
6D80
6D80
0000
0000
0000
0000
0000
ENDCHAR

STARTCHAR n
ENCODING 110
SWIDTH 556 0
DWIDTH 10 0
BBX 10 18 0 -5
BITMAP
0000
0000
0000
0000
6E00
7300
6180
6180
6180
6180
6180
6180
6180
0000
0000
0000
0000
0000
ENDCHAR

STARTCHAR o
ENCODING 111
SWIDTH 556 0
DWIDTH 10 0
BBX 10 18 0 -5
BITMAP
0000
0000
0000
0000
1E00
3300
6180
6180
6180
6180
6180
3300
1E00
0000
0000
0000
0000
0000
ENDCHAR

STARTCHAR p
ENCODING 112
SWIDTH 556 0
DWIDTH 10 0
BBX 10 18 0 -5
BITMAP
0000
0000
0000
0000
6E00
7300
6180
6180
6180
6180
6180
7300
6E00
6000
6000
6000
6000
0000
ENDCHAR

STARTCHAR q
ENCODING 113
SWIDTH 556 0
DWIDTH 10 0
BBX 10 18 0 -5
BITMAP
0000
0000
0000
0000
1D80
3380
6180
6180
6180
6180
6180
3380
1D80
0180
0180
0180
0180
0000
ENDCHAR

STARTCHAR r
ENCODING 114
SWIDTH 556 0
DWIDTH 10 0
BBX 10 18 0 -5
BITMAP
0000
0000
0000
0000
6F00
7980
6000
6000
6000
6000
6000
6000
6000
0000
0000
0000
0000
0000
ENDCHAR

STARTCHAR s
ENCODING 115
SWIDTH 556 0
DWIDTH 10 0
BBX 10 18 0 -5
BITMAP
0000
0000
0000
0000
3F00
6180
6080
7800
3F00
0780
4180
6180
3F00
0000
0000
0000
0000
0000
ENDCHAR

STARTCHAR t
ENCODING 116
SWIDTH 556 0
DWIDTH 10 0
BBX 10 18 0 -5
BITMAP
0000
0000
0C00
0C00
3F00
0C00
0C00
0C00
0C00
0C00
0C00
0600
0380
0000
0000
0000
0000
0000
ENDCHAR

STARTCHAR u
ENCODING 117
SWIDTH 556 0
DWIDTH 10 0
BBX 10 18 0 -5
BITMAP
0000
0000
0000
0000
6180
6180
6180
6180
6180
6180
6180
3380
1D80
0000
0000
0000
0000
0000
ENDCHAR

STARTCHAR v
ENCODING 118
SWIDTH 556 0
DWIDTH 10 0
BBX 10 18 0 -5
BITMAP
0000
0000
0000
0000
6180
6180
6180
3300
3300
1E00
1E00
0C00
0C00
0000
0000
0000
0000
0000
ENDCHAR

STARTCHAR w
ENCODING 119
SWIDTH 556 0
DWIDTH 10 0
BBX 10 18 0 -5
BITMAP
0000
0000
0000
0000
6180
6180
6D80
6D80
6D80
6D80
6D80
7F80
3300
0000
0000
0000
0000
0000
ENDCHAR

STARTCHAR x
ENCODING 120
SWIDTH 556 0
DWIDTH 10 0
BBX 10 18 0 -5
BITMAP
0000
0000
0000
0000
6180
6180
3300
1E00
0C00
1E00
3300
6180
6180
0000
0000
0000
0000
0000
ENDCHAR

STARTCHAR y
ENCODING 121
SWIDTH 556 0
DWIDTH 10 0
BBX 10 18 0 -5
BITMAP
0000
0000
0000
0000
6180
6180
6180
6180
6180
6180
6180
3380
1D80
0180
0180
6300
3E00
0000
ENDCHAR

STARTCHAR z
ENCODING 122
SWIDTH 556 0
DWIDTH 10 0
BBX 10 18 0 -5
BITMAP
0000
0000
0000
0000
7F80
0180
0300
0600
0C00
1800
3000
6000
7F80
0000
0000
0000
0000
0000
ENDCHAR

STARTCHAR braceleft
ENCODING 123
SWIDTH 556 0
DWIDTH 10 0
BBX 10 18 0 -5
BITMAP
0380
0600
0C00
0C00
0C00
0C00
0C00
0C00
3800
0C00
0C00
0C00
0C00
0C00
0C00
0600
0380
0000
ENDCHAR

STARTCHAR bar
ENCODING 124
SWIDTH 556 0
DWIDTH 10 0
BBX 10 18 0 -5
BITMAP
0C00
0C00
0C00
0C00
0C00
0C00
0C00
0C00
0C00
0C00
0C00
0C00
0C00
0C00
0C00
0C00
0C00
0000
ENDCHAR

STARTCHAR braceright
ENCODING 125
SWIDTH 556 0
DWIDTH 10 0
BBX 10 18 0 -5
BITMAP
7000
1800
0C00
0C00
0C00
0C00
0C00
0C00
0700
0C00
0C00
0C00
0C00
0C00
0C00
1800
7000
0000
ENDCHAR

STARTCHAR asciitilde
ENCODING 126
SWIDTH 556 0
DWIDTH 10 0
BBX 10 18 0 -5
BITMAP
0000
0000
0000
0000
0000
0000
1900
3F00
2600
0000
0000
0000
0000
0000
0000
0000
0000
0000
ENDCHAR

STARTCHAR exclamdown
ENCODING 161
SWIDTH 556 0
DWIDTH 10 0
BBX 10 18 0 -5
BITMAP
0000
0000
0000
0000
0C00
0C00
0000
0C00
0C00
0C00
0C00
0C00
0C00
0C00
0C00
0C00
0000
0000
ENDCHAR

STARTCHAR cent
ENCODING 162
SWIDTH 556 0
DWIDTH 10 0
BBX 10 18 0 -5
BITMAP
0000
0000
0C00
0C00
1E00
3300
6000
6000
6000
3300
1E00
0C00
0C00
0000
0000
0000
0000
0000
ENDCHAR

STARTCHAR sterling
ENCODING 163
SWIDTH 556 0
DWIDTH 10 0
BBX 10 18 0 -5
BITMAP
0000
1E00
3F00
3100
3000
3000
1800
7E00
1800
1800
3080
7F80
6F00
0000
0000
0000
0000
0000
ENDCHAR

STARTCHAR currency
ENCODING 164
SWIDTH 556 0
DWIDTH 10 0
BBX 10 18 0 -5
BITMAP
0000
0000
0000
0000
0000
3300
3F00
1200
1200
3F00
3300
0000
0000
0000
0000
0000
0000
0000
ENDCHAR

STARTCHAR yen
ENCODING 165
SWIDTH 556 0
DWIDTH 10 0
BBX 10 18 0 -5
BITMAP
0000
6180
6180
3300
3300
3300
1E00
7F80
0C00
7F80
0C00
0C00
0C00
0000
0000
0000
0000
0000
ENDCHAR

STARTCHAR brokenbar
ENCODING 166
SWIDTH 556 0
DWIDTH 10 0
BBX 10 18 0 -5
BITMAP
0C00
0C00
0C00
0C00
0C00
0C00
0C00
0000
0000
0000
0C00
0C00
0C00
0C00
0C00
0C00
0C00
0000
ENDCHAR

STARTCHAR section
ENCODING 167
SWIDTH 556 0
DWIDTH 10 0
BBX 10 18 0 -5
BITMAP
0000
1E00
3F00
6180
7000
3C00
6600
6300
6180
3180
1980
0F00
0380
6180
3F00
1E00
0000
0000
ENDCHAR

STARTCHAR dieresis
ENCODING 168
SWIDTH 556 0
DWIDTH 10 0
BBX 10 18 0 -5
BITMAP
0000
0000
3600
3600
0000
0000
0000
0000
0000
0000
0000
0000
0000
0000
0000
0000
0000
0000
ENDCHAR

STARTCHAR copyright
ENCODING 169
SWIDTH 556 0
DWIDTH 10 0
BBX 10 18 0 -5
BITMAP
0000
0000
0000
0000
3E00
6300
DD80
B680
B080
B680
DD80
6300
3E00
0000
0000
0000
0000
0000
ENDCHAR

STARTCHAR ordfeminine
ENCODING 170
SWIDTH 556 0
DWIDTH 10 0
BBX 10 18 0 -5
BITMAP
0000
1C00
2600
1E00
3600
3600
1A00
0000
3E00
3E00
0000
0000
0000
0000
0000
0000
0000
0000
ENDCHAR

STARTCHAR guillemotleft
ENCODING 171
SWIDTH 556 0
DWIDTH 10 0
BBX 10 18 0 -5
BITMAP
0000
0000
0000
0000
0000
0480
0D80
1B00
3600
3600
1B00
0D80
0480
0000
0000
0000
0000
0000
ENDCHAR

STARTCHAR logicalnot
ENCODING 172
SWIDTH 556 0
DWIDTH 10 0
BBX 10 18 0 -5
BITMAP
0000
0000
0000
0000
0000
0000
7F80
7F80
0180
0180
0180
0000
0000
0000
0000
0000
0000
0000
ENDCHAR

STARTCHAR hyphen
ENCODING 173
SWIDTH 556 0
DWIDTH 10 0
BBX 10 18 0 -5
BITMAP
0000
0000
0000
0000
0000
0000
0000
3F00
3F00
0000
0000
0000
0000
0000
0000
0000
0000
0000
ENDCHAR

STARTCHAR registered
ENCODING 174
SWIDTH 556 0
DWIDTH 10 0
BBX 10 18 0 -5
BITMAP
0000
0000
0000
0000
3E00
6300
DD80
9680
9E80
9480
D780
6300
3E00
0000
0000
0000
0000
0000
ENDCHAR

STARTCHAR macron
ENCODING 175
SWIDTH 556 0
DWIDTH 10 0
BBX 10 18 0 -5
BITMAP
0000
0000
1E00
1E00
0000
0000
0000
0000
0000
0000
0000
0000
0000
0000
0000
0000
0000
0000
ENDCHAR

STARTCHAR degree
ENCODING 176
SWIDTH 556 0
DWIDTH 10 0
BBX 10 18 0 -5
BITMAP
0000
0000
0000
0000
1C00
3600
3600
1C00
0000
0000
0000
0000
0000
0000
0000
0000
0000
0000
ENDCHAR

STARTCHAR plusminus
ENCODING 177
SWIDTH 556 0
DWIDTH 10 0
BBX 10 18 0 -5
BITMAP
0000
0000
0C00
0C00
0C00
7F80
7F80
0C00
0C00
0C00
0000
7F80
7F80
0000
0000
0000
0000
0000
ENDCHAR

STARTCHAR twosuperior
ENCODING 178
SWIDTH 556 0
DWIDTH 10 0
BBX 10 18 0 -5
BITMAP
0000
1C00
3E00
2600
0E00
1800
3E00
3E00
0000
0000
0000
0000
0000
0000
0000
0000
0000
0000
ENDCHAR

STARTCHAR threesuperior
ENCODING 179
SWIDTH 556 0
DWIDTH 10 0
BBX 10 18 0 -5
BITMAP
0000
1C00
3E00
0600
0C00
0600
3E00
1C00
0000
0000
0000
0000
0000
0000
0000
0000
0000
0000
ENDCHAR

STARTCHAR acute
ENCODING 180
SWIDTH 556 0
DWIDTH 10 0
BBX 10 18 0 -5
BITMAP
0000
0E00
1C00
3800
0000
0000
0000
0000
0000
0000
0000
0000
0000
0000
0000
0000
0000
0000
ENDCHAR

STARTCHAR mu
ENCODING 181
SWIDTH 556 0
DWIDTH 10 0
BBX 10 18 0 -5
BITMAP
0000
0000
0000
0000
6180
6180
6180
6180
6180
6180
6180
7380
7D80
6000
6000
6000
0000
0000
ENDCHAR

STARTCHAR paragraph
ENCODING 182
SWIDTH 556 0
DWIDTH 10 0
BBX 10 18 0 -5
BITMAP
0000
3FC0
7980
D980
D980
D980
D980
7980
3980
1980
1980
1980
1980
1980
1980
0000
0000
0000
ENDCHAR

STARTCHAR periodcentered
ENCODING 183
SWIDTH 556 0
DWIDTH 10 0
BBX 10 18 0 -5
BITMAP
0000
0000
0000
0000
0000
0000
0000
0C00
0C00
0000
0000
0000
0000
0000
0000
0000
0000
0000
ENDCHAR

STARTCHAR cedilla
ENCODING 184
SWIDTH 556 0
DWIDTH 10 0
BBX 10 18 0 -5
BITMAP
0000
0000
0000
0000
0000
0000
0000
0000
0000
0000
0000
0000
0000
0C00
0E00
0200
1E00
0000
ENDCHAR

STARTCHAR onesuperior
ENCODING 185
SWIDTH 556 0
DWIDTH 10 0
BBX 10 18 0 -5
BITMAP
0000
0C00
1C00
0C00
0C00
0C00
0C00
1E00
0000
0000
0000
0000
0000
0000
0000
0000
0000
0000
ENDCHAR

STARTCHAR ordmasculine
ENCODING 186
SWIDTH 556 0
DWIDTH 10 0
BBX 10 18 0 -5
BITMAP
0000
1C00
3600
3600
3600
3600
1C00
0000
3E00
3E00
0000
0000
0000
0000
0000
0000
0000
0000
ENDCHAR

STARTCHAR guillemotright
ENCODING 187
SWIDTH 556 0
DWIDTH 10 0
BBX 10 18 0 -5
BITMAP
0000
0000
0000
0000
0000
4800
6C00
3600
1B00
1B00
3600
2C00
4800
0000
0000
0000
0000
0000
ENDCHAR

STARTCHAR onequarter
ENCODING 188
SWIDTH 556 0
DWIDTH 10 0
BBX 10 18 0 -5
BITMAP
6000
E000
6000
6000
6180
6300
F600
0D80
1B80
3780
6D80
0FC0
0180
0180
0000
0000
0000
0000
ENDCHAR

STARTCHAR onehalf
ENCODING 189
SWIDTH 556 0
DWIDTH 10 0
BBX 10 18 0 -5
BITMAP
6000
E000
6000
6000
6180
6300
F600
0C00
1B80
37C0
64C0
01C0
0300
07C0
07C0
0000
0000
0000
ENDCHAR

STARTCHAR threequarters
ENCODING 190
SWIDTH 556 0
DWIDTH 10 0
BBX 10 18 0 -5
BITMAP
7000
F800
1800
3000
1980
FB00
7600
0D80
1B80
3780
6D80
0FC0
0180
0180
0000
0000
0000
0000
ENDCHAR

STARTCHAR questiondown
ENCODING 191
SWIDTH 556 0
DWIDTH 10 0
BBX 10 18 0 -5
BITMAP
0000
0000
0000
0000
0C00
0C00
0000
0C00
0C00
1800
3000
6000
6180
6180
3300
1E00
0000
0000
ENDCHAR

STARTCHAR Agrave
ENCODING 192
SWIDTH 556 0
DWIDTH 10 0
BBX 10 18 0 -5
BITMAP
3800
1C00
0000
0800
1C00
1C00
3600
3600
6300
7F00
C180
C180
C180
0000
0000
0000
0000
0000
ENDCHAR

STARTCHAR Aacute
ENCODING 193
SWIDTH 556 0
DWIDTH 10 0
BBX 10 18 0 -5
BITMAP
0E00
1C00
0000
0800
1C00
1C00
3600
3600
6300
7F00
C180
C180
C180
0000
0000
0000
0000
0000
ENDCHAR

STARTCHAR Acircumflex
ENCODING 194
SWIDTH 556 0
DWIDTH 10 0
BBX 10 18 0 -5
BITMAP
1C00
3600
0000
0800
1C00
1C00
3600
3600
6300
7F00
C180
C180
C180
0000
0000
0000
0000
0000
ENDCHAR

STARTCHAR Atilde
ENCODING 195
SWIDTH 556 0
DWIDTH 10 0
BBX 10 18 0 -5
BITMAP
3B00
6E00
0000
0800
1C00
1C00
3600
3600
6300
7F00
C180
C180
C180
0000
0000
0000
0000
0000
ENDCHAR

STARTCHAR Adieresis
ENCODING 196
SWIDTH 556 0
DWIDTH 10 0
BBX 10 18 0 -5
BITMAP
3600
3600
0000
0800
1C00
1C00
3600
3600
6300
7F00
C180
C180
C180
0000
0000
0000
0000
0000
ENDCHAR

STARTCHAR Aring
ENCODING 197
SWIDTH 556 0
DWIDTH 10 0
BBX 10 18 0 -5
BITMAP
1C00
3600
1C00
0800
1C00
1C00
3600
3600
6300
7F00
C180
C180
C180
0000
0000
0000
0000
0000
ENDCHAR

STARTCHAR AE
ENCODING 198
SWIDTH 556 0
DWIDTH 10 0
BBX 10 18 0 -5
BITMAP
0000
0000
1F80
3C00
6C00
4C00
CC00
CF00
FC00
CC00
CC00
CC00
CF80
0000
0000
0000
0000
0000
ENDCHAR

STARTCHAR Ccedilla
ENCODING 199
SWIDTH 556 0
DWIDTH 10 0
BBX 10 18 0 -5
BITMAP
0000
0000
0000
1E00
3300
6180
6000
6000
6000
6000
6180
3300
1E00
0C00
0E00
0600
1E00
0000
ENDCHAR

STARTCHAR Egrave
ENCODING 200
SWIDTH 556 0
DWIDTH 10 0
BBX 10 18 0 -5
BITMAP
1C00
0E00
0000
7F80
6000
6000
6000
7F00
6000
6000
6000
6000
7F80
0000
0000
0000
0000
0000
ENDCHAR

STARTCHAR Eacute
ENCODING 201
SWIDTH 556 0
DWIDTH 10 0
BBX 10 18 0 -5
BITMAP
0700
0E00
0000
7F80
6000
6000
6000
7F00
6000
6000
6000
6000
7F80
0000
0000
0000
0000
0000
ENDCHAR

STARTCHAR Ecircumflex
ENCODING 202
SWIDTH 556 0
DWIDTH 10 0
BBX 10 18 0 -5
BITMAP
0E00
1B00
0000
7F80
6000
6000
6000
7F00
6000
6000
6000
6000
7F80
0000
0000
0000
0000
0000
ENDCHAR

STARTCHAR Edieresis
ENCODING 203
SWIDTH 556 0
DWIDTH 10 0
BBX 10 18 0 -5
BITMAP
1B00
1B00
0000
7F80
6000
6000
6000
7F00
6000
6000
6000
6000
7F80
0000
0000
0000
0000
0000
ENDCHAR

STARTCHAR Igrave
ENCODING 204
SWIDTH 556 0
DWIDTH 10 0
BBX 10 18 0 -5
BITMAP
1C00
0E00
0000
1E00
0C00
0C00
0C00
0C00
0C00
0C00
0C00
0C00
1E00
0000
0000
0000
0000
0000
ENDCHAR

STARTCHAR Iacute
ENCODING 205
SWIDTH 556 0
DWIDTH 10 0
BBX 10 18 0 -5
BITMAP
0E00
1C00
0000
1E00
0C00
0C00
0C00
0C00
0C00
0C00
0C00
0C00
1E00
0000
0000
0000
0000
0000
ENDCHAR

STARTCHAR Icircumflex
ENCODING 206
SWIDTH 556 0
DWIDTH 10 0
BBX 10 18 0 -5
BITMAP
0E00
1B00
0000
1E00
0C00
0C00
0C00
0C00
0C00
0C00
0C00
0C00
1E00
0000
0000
0000
0000
0000
ENDCHAR

STARTCHAR Idieresis
ENCODING 207
SWIDTH 556 0
DWIDTH 10 0
BBX 10 18 0 -5
BITMAP
1B00
1B00
0000
1E00
0C00
0C00
0C00
0C00
0C00
0C00
0C00
0C00
1E00
0000
0000
0000
0000
0000
ENDCHAR

STARTCHAR Eth
ENCODING 208
SWIDTH 556 0
DWIDTH 10 0
BBX 10 18 0 -5
BITMAP
0000
0000
7E00
6300
6180
6180
6180
F980
6180
6180
6180
6300
7E00
0000
0000
0000
0000
0000
ENDCHAR

STARTCHAR Ntilde
ENCODING 209
SWIDTH 556 0
DWIDTH 10 0
BBX 10 18 0 -5
BITMAP
1D80
3700
0000
6180
7180
7180
7980
6D80
6580
6780
6380
6380
6180
0000
0000
0000
0000
0000
ENDCHAR

STARTCHAR Ograve
ENCODING 210
SWIDTH 556 0
DWIDTH 10 0
BBX 10 18 0 -5
BITMAP
1C00
0E00
0000
1E00
3300
6180
6180
6180
6180
6180
6180
3300
1E00
0000
0000
0000
0000
0000
ENDCHAR

STARTCHAR Oacute
ENCODING 211
SWIDTH 556 0
DWIDTH 10 0
BBX 10 18 0 -5
BITMAP
0E00
1C00
0000
1E00
3300
6180
6180
6180
6180
6180
6180
3300
1E00
0000
0000
0000
0000
0000
ENDCHAR

STARTCHAR Ocircumflex
ENCODING 212
SWIDTH 556 0
DWIDTH 10 0
BBX 10 18 0 -5
BITMAP
0E00
1B00
0000
1E00
3300
6180
6180
6180
6180
6180
6180
3300
1E00
0000
0000
0000
0000
0000
ENDCHAR

STARTCHAR Otilde
ENCODING 213
SWIDTH 556 0
DWIDTH 10 0
BBX 10 18 0 -5
BITMAP
1D80
3700
0000
1E00
3300
6180
6180
6180
6180
6180
6180
3300
1E00
0000
0000
0000
0000
0000
ENDCHAR

STARTCHAR Odieresis
ENCODING 214
SWIDTH 556 0
DWIDTH 10 0
BBX 10 18 0 -5
BITMAP
1B00
1B00
0000
1E00
3300
6180
6180
6180
6180
6180
6180
3300
1E00
0000
0000
0000
0000
0000
ENDCHAR

STARTCHAR multiply
ENCODING 215
SWIDTH 556 0
DWIDTH 10 0
BBX 10 18 0 -5
BITMAP
0000
0000
0000
0000
0000
6180
3300
1E00
0C00
1E00
3300
6180
0000
0000
0000
0000
0000
0000
ENDCHAR

STARTCHAR Oslash
ENCODING 216
SWIDTH 556 0
DWIDTH 10 0
BBX 10 18 0 -5
BITMAP
0000
0000
0000
1E80
3300
6380
6780
6580
6D80
6980
7980
3300
5E00
0000
0000
0000
0000
0000
ENDCHAR

STARTCHAR Ugrave
ENCODING 217
SWIDTH 556 0
DWIDTH 10 0
BBX 10 18 0 -5
BITMAP
1C00
0E00
0000
6180
6180
6180
6180
6180
6180
6180
6180
3300
1E00
0000
0000
0000
0000
0000
ENDCHAR

STARTCHAR Uacute
ENCODING 218
SWIDTH 556 0
DWIDTH 10 0
BBX 10 18 0 -5
BITMAP
0E00
1C00
0000
6180
6180
6180
6180
6180
6180
6180
6180
3300
1E00
0000
0000
0000
0000
0000
ENDCHAR

STARTCHAR Ucircumflex
ENCODING 219
SWIDTH 556 0
DWIDTH 10 0
BBX 10 18 0 -5
BITMAP
0E00
1B00
0000
6180
6180
6180
6180
6180
6180
6180
6180
3300
1E00
0000
0000
0000
0000
0000
ENDCHAR

STARTCHAR Udieresis
ENCODING 220
SWIDTH 556 0
DWIDTH 10 0
BBX 10 18 0 -5
BITMAP
1B00
1B00
0000
6180
6180
6180
6180
6180
6180
6180
6180
3300
1E00
0000
0000
0000
0000
0000
ENDCHAR

STARTCHAR Yacute
ENCODING 221
SWIDTH 556 0
DWIDTH 10 0
BBX 10 18 0 -5
BITMAP
0E00
1C00
0000
6180
6180
3300
3300
1E00
1E00
0C00
0C00
0C00
0C00
0000
0000
0000
0000
0000
ENDCHAR

STARTCHAR Thorn
ENCODING 222
SWIDTH 556 0
DWIDTH 10 0
BBX 10 18 0 -5
BITMAP
0000
F000
6000
6000
7E00
6300
6180
6180
6300
7E00
6000
6000
F000
0000
0000
0000
0000
0000
ENDCHAR

STARTCHAR germandbls
ENCODING 223
SWIDTH 556 0
DWIDTH 10 0
BBX 10 18 0 -5
BITMAP
0000
0000
1800
3C00
6600
6600
6C00
6600
6300
6300
6300
7300
6E00
0000
0000
0000
0000
0000
ENDCHAR

STARTCHAR agrave
ENCODING 224
SWIDTH 556 0
DWIDTH 10 0
BBX 10 18 0 -5
BITMAP
0000
3800
1C00
0000
3E00
6700
0300
1F00
3300
6300
6300
6700
3D80
0000
0000
0000
0000
0000
ENDCHAR

STARTCHAR aacute
ENCODING 225
SWIDTH 556 0
DWIDTH 10 0
BBX 10 18 0 -5
BITMAP
0000
0E00
1C00
0000
3E00
6700
0300
1F00
3300
6300
6300
6700
3D80
0000
0000
0000
0000
0000
ENDCHAR

STARTCHAR acircumflex
ENCODING 226
SWIDTH 556 0
DWIDTH 10 0
BBX 10 18 0 -5
BITMAP
0000
1C00
3600
0000
3E00
6700
0300
1F00
3300
6300
6300
6700
3D80
0000
0000
0000
0000
0000
ENDCHAR

STARTCHAR atilde
ENCODING 227
SWIDTH 556 0
DWIDTH 10 0
BBX 10 18 0 -5
BITMAP
0000
3B00
6E00
0000
3E00
6700
0300
1F00
3300
6300
6300
6700
3D80
0000
0000
0000
0000
0000
ENDCHAR

STARTCHAR adieresis
ENCODING 228
SWIDTH 556 0
DWIDTH 10 0
BBX 10 18 0 -5
BITMAP
0000
3600
3600
0000
3E00
6700
0300
1F00
3300
6300
6300
6700
3D80
0000
0000
0000
0000
0000
ENDCHAR

STARTCHAR aring
ENCODING 229
SWIDTH 556 0
DWIDTH 10 0
BBX 10 18 0 -5
BITMAP
1C00
3600
3600
1C00
3E00
6700
0300
1F00
3300
6300
6300
6700
3D80
0000
0000
0000
0000
0000
ENDCHAR

STARTCHAR ae
ENCODING 230
SWIDTH 556 0
DWIDTH 10 0
BBX 10 18 0 -5
BITMAP
0000
0000
0000
0000
7380
DEC0
0CC0
0CC0
7F80
CC00
CC00
DCC0
7780
0000
0000
0000
0000
0000
ENDCHAR

STARTCHAR ccedilla
ENCODING 231
SWIDTH 556 0
DWIDTH 10 0
BBX 10 18 0 -5
BITMAP
0000
0000
0000
0000
1E00
3300
6180
6000
6000
6000
6180
3300
1E00
0C00
0E00
0600
1E00
0000
ENDCHAR

STARTCHAR egrave
ENCODING 232
SWIDTH 556 0
DWIDTH 10 0
BBX 10 18 0 -5
BITMAP
0000
1C00
0E00
0000
1E00
3300
6180
6180
7F80
6000
6000
3180
1F00
0000
0000
0000
0000
0000
ENDCHAR

STARTCHAR eacute
ENCODING 233
SWIDTH 556 0
DWIDTH 10 0
BBX 10 18 0 -5
BITMAP
0000
0E00
1C00
0000
1E00
3300
6180
6180
7F80
6000
6000
3180
1F00
0000
0000
0000
0000
0000
ENDCHAR

STARTCHAR ecircumflex
ENCODING 234
SWIDTH 556 0
DWIDTH 10 0
BBX 10 18 0 -5
BITMAP
0000
1C00
3600
0000
1E00
3300
6180
6180
7F80
6000
6000
3180
1F00
0000
0000
0000
0000
0000
ENDCHAR

STARTCHAR edieresis
ENCODING 235
SWIDTH 556 0
DWIDTH 10 0
BBX 10 18 0 -5
BITMAP
0000
3600
3600
0000
1E00
3300
6180
6180
7F80
6000
6000
3180
1F00
0000
0000
0000
0000
0000
ENDCHAR

STARTCHAR igrave
ENCODING 236
SWIDTH 556 0
DWIDTH 10 0
BBX 10 18 0 -5
BITMAP
0000
1C00
0E00
0000
1E00
0600
0600
0600
0600
0600
0600
0600
0600
0000
0000
0000
0000
0000
ENDCHAR

STARTCHAR iacute
ENCODING 237
SWIDTH 556 0
DWIDTH 10 0
BBX 10 18 0 -5
BITMAP
0000
0E00
1C00
0000
1E00
0600
0600
0600
0600
0600
0600
0600
0600
0000
0000
0000
0000
0000
ENDCHAR

STARTCHAR icircumflex
ENCODING 238
SWIDTH 556 0
DWIDTH 10 0
BBX 10 18 0 -5
BITMAP
0000
0E00
1B00
0000
1E00
0600
0600
0600
0600
0600
0600
0600
0600
0000
0000
0000
0000
0000
ENDCHAR

STARTCHAR idieresis
ENCODING 239
SWIDTH 556 0
DWIDTH 10 0
BBX 10 18 0 -5
BITMAP
0000
1B00
1B00
0000
1E00
0600
0600
0600
0600
0600
0600
0600
0600
0000
0000
0000
0000
0000
ENDCHAR

STARTCHAR eth
ENCODING 240
SWIDTH 556 0
DWIDTH 10 0
BBX 10 18 0 -5
BITMAP
0000
6C00
3800
6C00
1E00
3300
6180
6180
6180
6180
6180
3300
1E00
0000
0000
0000
0000
0000
ENDCHAR

STARTCHAR ntilde
ENCODING 241
SWIDTH 556 0
DWIDTH 10 0
BBX 10 18 0 -5
BITMAP
0000
3B00
6E00
0000
6E00
7300
6180
6180
6180
6180
6180
6180
6180
0000
0000
0000
0000
0000
ENDCHAR

STARTCHAR ograve
ENCODING 242
SWIDTH 556 0
DWIDTH 10 0
BBX 10 18 0 -5
BITMAP
0000
1C00
0E00
0000
1E00
3300
6180
6180
6180
6180
6180
3300
1E00
0000
0000
0000
0000
0000
ENDCHAR

STARTCHAR oacute
ENCODING 243
SWIDTH 556 0
DWIDTH 10 0
BBX 10 18 0 -5
BITMAP
0000
0E00
1C00
0000
1E00
3300
6180
6180
6180
6180
6180
3300
1E00
0000
0000
0000
0000
0000
ENDCHAR

STARTCHAR ocircumflex
ENCODING 244
SWIDTH 556 0
DWIDTH 10 0
BBX 10 18 0 -5
BITMAP
0000
0E00
1B00
0000
1E00
3300
6180
6180
6180
6180
6180
3300
1E00
0000
0000
0000
0000
0000
ENDCHAR

STARTCHAR otilde
ENCODING 245
SWIDTH 556 0
DWIDTH 10 0
BBX 10 18 0 -5
BITMAP
0000
1D80
3700
0000
1E00
3300
6180
6180
6180
6180
6180
3300
1E00
0000
0000
0000
0000
0000
ENDCHAR

STARTCHAR odieresis
ENCODING 246
SWIDTH 556 0
DWIDTH 10 0
BBX 10 18 0 -5
BITMAP
0000
1B00
1B00
0000
1E00
3300
6180
6180
6180
6180
6180
3300
1E00
0000
0000
0000
0000
0000
ENDCHAR

STARTCHAR divide
ENCODING 247
SWIDTH 556 0
DWIDTH 10 0
BBX 10 18 0 -5
BITMAP
0000
0000
0000
0000
0000
0C00
0C00
0000
7F80
7F80
0000
0C00
0C00
0000
0000
0000
0000
0000
ENDCHAR

STARTCHAR oslash
ENCODING 248
SWIDTH 556 0
DWIDTH 10 0
BBX 10 18 0 -5
BITMAP
0000
0000
0000
0000
1E80
3300
6380
6780
6D80
6980
7980
3300
5E00
0000
0000
0000
0000
0000
ENDCHAR

STARTCHAR ugrave
ENCODING 249
SWIDTH 556 0
DWIDTH 10 0
BBX 10 18 0 -5
BITMAP
0000
1C00
0E00
0000
6180
6180
6180
6180
6180
6180
6180
3380
1D80
0000
0000
0000
0000
0000
ENDCHAR

STARTCHAR uacute
ENCODING 250
SWIDTH 556 0
DWIDTH 10 0
BBX 10 18 0 -5
BITMAP
0000
0E00
1C00
0000
6180
6180
6180
6180
6180
6180
6180
3380
1D80
0000
0000
0000
0000
0000
ENDCHAR

STARTCHAR ucircumflex
ENCODING 251
SWIDTH 556 0
DWIDTH 10 0
BBX 10 18 0 -5
BITMAP
0000
0E00
1B00
0000
6180
6180
6180
6180
6180
6180
6180
3380
1D80
0000
0000
0000
0000
0000
ENDCHAR

STARTCHAR udieresis
ENCODING 252
SWIDTH 556 0
DWIDTH 10 0
BBX 10 18 0 -5
BITMAP
0000
1B00
1B00
0000
6180
6180
6180
6180
6180
6180
6180
3380
1D80
0000
0000
0000
0000
0000
ENDCHAR

STARTCHAR yacute
ENCODING 253
SWIDTH 556 0
DWIDTH 10 0
BBX 10 18 0 -5
BITMAP
0000
0E00
1C00
0000
6180
6180
6180
6180
6180
6180
6180
3380
1D80
0180
0180
6300
3E00
0000
ENDCHAR

STARTCHAR thorn
ENCODING 254
SWIDTH 556 0
DWIDTH 10 0
BBX 10 18 0 -5
BITMAP
0000
E000
6000
7E00
7300
6180
6180
6180
6180
6180
7300
7E00
6000
6000
F000
0000
0000
0000
ENDCHAR

STARTCHAR ydieresis
ENCODING 255
SWIDTH 556 0
DWIDTH 10 0
BBX 10 18 0 -5
BITMAP
0000
1B00
1B00
0000
6180
6180
6180
6180
6180
6180
6180
3380
1D80
0180
0180
6300
3E00
0000
ENDCHAR
ENDFONT
